<svg xmlns="http://www.w3.org/2000/svg" viewBox="0 0 1170.94 287.66"><defs><style>.cls-1{fill:#211d1e;}.cls-2{fill:#ff1717;}.cls-2,.cls-3{stroke:red;}.cls-3{fill:#fff;stroke-linecap:round;stroke-width:2px;}</style></defs><title>MASSIVE_1</title><g id="Layer_2" data-name="Layer 2"><g id="Layer_1-2" data-name="Layer 1"><path class="cls-1" d="M68.53,159.27c6.77-.76,20.73,2.43,25.46,18.88,6,21-5.05,37.9-30.72,45.29l-45,12.93L0,121.46l40.71-11.71c20.78-6,35.52.11,40.34,16.85C86.63,146,74.8,155.71,68.4,158.81l.13.46Zm-23-.36c12.61-3.63,17.72-12.76,14.85-22.75C58,127.65,51,124.6,39.29,128l-15.67,4.51,5,31.33,17-4.89Zm11.23,48.58c12-3.46,19.2-11.88,15.66-24.18-2.83-9.84-11.76-12.58-22.35-9.54L31,179.26l5.41,34.08,20.35-5.85Z"/><path class="cls-1" d="M163.1,152.07c12.74,3.8,15.2,25.76,29.19,22.55a18,18,0,0,0,3.29-1.11l3.17,16.62a52.76,52.76,0,0,1-11.14,3.71c-32.48,7.44-27.72-37-52.87-31.23l-5.69,1.3,4.25,41.16L111.8,210l-12-115.75,35.75-8.19c24.91-5.71,40.5,1,45.45,22.59,4.33,18.9-2.9,33.79-17.92,43.41Zm-24.35-6.72c15.27-3.5,24.92-14.06,21.55-28.81-2.57-11.22-11-15.47-24-12.49l-13.08,3,4.22,40.9Z"/><path class="cls-1" d="M224.12,87l1.55,29.53,43.09-7.62.89,17.67-43.06,7.61,1.69,32.27,49.49-8.75,1,18.36L207.57,188.7,201.41,72.5l71.21-12.59,1,18.36Z"/><path class="cls-1" d="M352.91,140.18,312,145.35l-8.09,27.19-22.46,2.84L320.4,54l23.31-3L383.5,162.47l-22.33,2.83Zm-5.38-16.34L335.83,88.3a105.45,105.45,0,0,1-3.37-12.45l-.47.06a121.87,121.87,0,0,1-3.25,13.36l-11.43,38.4Z"/><path class="cls-1" d="M433.86,43c32.18-2.35,50.41,15.5,52.6,45.41,3.13,42.74-17.38,67.82-53.16,70.44L390.59,162,396.3,45.74,433.86,43Zm30.41,48.47c-1.6-21.91-13.5-31.91-33.69-30.43l-13.15,1-4,80.51,18.4-1.35C453.39,139.57,466.62,123.58,464.27,91.46Z"/><path class="cls-1" d="M769.11,145.38a18,18,0,0,0,3.47-.1l-1.83,16.82a52.77,52.77,0,0,1-11.73.29c-33.23-2.38-15.7-43.48-41.43-45.32l-5.82-.42-8,40.6-22-1.57L704.19,41.49l36.58,2.62c25.49,1.83,38.44,12.8,36.85,34.89-1.38,19.34-12.65,31.46-29.83,36.28C758.87,122.63,754.8,144.35,769.11,145.38Zm-42.64-43.65c15.63,1.12,27.95-6.16,29-21.25.82-11.48-6-18-19.34-19l-13.38-1-7.92,40.35Z"/><path class="cls-1" d="M894.79,111.24c-5.09,40.34-34.56,63-69.29,58.66-27.94-3.53-43.87-25.36-40-56.36,5.09-40.34,34.79-63,69.12-58.68C882.83,58.42,898.71,80.24,894.79,111.24ZM872.42,110c2.59-20.51-6.47-34.42-22.52-36.44-20-2.53-38.44,13.19-42,41.18-2.59,20.51,6.52,34.42,22.34,36.42C850.61,153.75,868.88,138,872.42,110Z"/><path class="cls-1" d="M970.46,108.77c1.42-6-1.43-16.58-15-19-11.37-2.06-19.95,2.63-21.61,11.79-3.5,19.34,49.38,19.62,42.73,56.3-3.71,20.51-22.58,32.65-51.58,27.4-22-4-33.91-15.91-38.5-22.53l17.83-13.22c3.34,5.33,11.9,15.66,26.64,18.33,13.46,2.44,21.53-1.84,23.17-10.86,4-22.12-49.19-21.56-43-55.84,3.8-21,24.6-33.69,49.43-29.2,29.08,5.27,32,24.57,30.92,35.72l-21,1.16Z"/><path class="cls-1" d="M1033.89,107.17,1023.75,135l42.63,9.85-6.09,16.61-42.6-9.85-11.07,30.35,49,11.32-6.27,17.29-70.46-16.29,39.82-109.34,70.46,16.29-6.27,17.29Z"/><path class="cls-1" d="M1149.16,153.19c2-5.87.19-16.64-13.08-20.41-11.12-3.16-20.11.67-22.65,9.63-5.37,18.91,47.23,24.34,37,60.19-5.69,20-25.65,30.29-54,22.24-21.52-6.11-32.19-19.14-36.12-26.17l19-11.42c2.8,5.63,10.32,16.74,24.73,20.83,13.16,3.74,21.61.27,24.11-8.55,6.14-21.63-46.85-26.25-37.33-59.76,5.83-20.52,27.76-31.13,52-24.24,28.43,8.07,29.45,27.58,27.29,38.56l-21.06-.9Z"/><path class="cls-1" d="M152.8,254.6c3,12.63-1.92,20.78-13,23.39l-15.19,3.58-9-38.41L129,240C141.48,237.06,150.07,243,152.8,254.6Zm-8.38,2c-2-8.5-7.27-11.56-14.89-9.76l-4.13,1L131.34,273l5.94-1.4C143.45,270.19,146.56,265.65,144.42,256.57Z"/><path class="cls-1" d="M182,259.27l4.74,3.57c-1.34,2.86-4.86,6.12-10.82,7.4-9.29,2-16.11-2.65-17.89-11s2.51-15.34,11-17.18c8.07-1.73,13.87,2.77,15.49,10.31a16.86,16.86,0,0,1,.4,3l-18.59,4c1.49,3.53,4.62,5.55,9.18,4.57A9.2,9.2,0,0,0,182,259.27Zm-16.52-4L177,252.77c-.76-3.26-3.28-5.29-6.61-4.57C167.19,248.87,165.24,251.44,165.44,255.24Z"/><path class="cls-1" d="M234.07,240.69l3.25,17-8,1.54-3-15.56c-.64-3.35-2.64-5.21-5.87-4.6-4,.77-4.89,4.65-4.28,7.82l2.75,14.33-8,1.54-3-15.56c-.64-3.35-2.64-5.22-5.87-4.6-3.93.75-4.83,4.64-4.22,7.81l2.75,14.33-8,1.54-5.31-27.71,6.24-1.44a23.63,23.63,0,0,1,2.11,5.62l.18,0a8.86,8.86,0,0,1,7.56-7.54c4.93-.95,8.59,1,10.72,4.46a9,9,0,0,1,7.72-8C228.43,230.33,232.86,234.35,234.07,240.69Z"/><path class="cls-1" d="M268.68,238.13c1.41,8.37-3.44,15.25-12.22,16.73s-15.67-3.43-17.08-11.8,3.44-15.25,12.28-16.74S267.27,229.76,268.68,238.13Zm-8.2,1.38c-.75-4.48-3.77-7.25-7.72-6.58s-6,4.27-5.2,8.76,3.77,7.25,7.77,6.57S261.24,244,260.48,239.51Z"/><path class="cls-1" d="M297.7,229.14a11,11,0,0,1,.14,2.1l-7.09,1.49a4.69,4.69,0,0,0-.07-1.26,4.31,4.31,0,0,0-5.28-3.74c-3.67.55-5.69,3.94-5,8.44.71,4.73,3.61,7.5,8.4,6.77a9.83,9.83,0,0,0,7.13-4.4l4.73,4.49c-1.43,2.51-5.13,5.67-11.4,6.62-9.34,1.41-15.79-3.66-17-11.94-1.29-8.57,3.73-15.32,12.3-16.61C291.9,220,296.87,223.7,297.7,229.14Z"/><path class="cls-1" d="M320.91,216.78l-1.06,8.11a5.46,5.46,0,0,0-3.34-.57c-3.08.42-5.41,3.28-4.76,8l1.85,13.51-8.12,1.11-3.83-28,6.31-1.11a27.2,27.2,0,0,1,1.85,6l.24,0c.58-3.7,2.4-6.72,6.6-7.3A10.24,10.24,0,0,1,320.91,216.78Z"/><path class="cls-1" d="M354.48,240.4a15,15,0,0,1-3.91,1c-3.86.47-6.12-.75-7-3.66-.68,1.83-2.66,4.84-8.47,5.56-6.05.74-9.87-1.86-10.44-6.55-.85-6.94,6.23-9.56,16.65-11.08l.36,0-.15-1.25c-.35-2.85-2.24-4.54-5.69-4.12-3.09.38-4.65,1.84-4.41,3.85a2,2,0,0,0,.37,1l-7,2.06a10.59,10.59,0,0,1-.69-2.69c-.66-5.34,3.59-9.48,11.31-10.42,8.25-1,13.21,2.59,14.08,9.65l1.12,9.14c.16,1.31.7,1.78,1.77,1.65a2.77,2.77,0,0,0,1-.3ZM342.43,232l-.28-2.25-.36,0c-6.68,1-9.71,2.34-9.39,4.95.23,1.84,1.83,2.61,4.26,2.31C340.58,236.56,342.7,234.25,342.43,232Z"/><path class="cls-1" d="M379.45,236.21s-2.75,2.34-8.16,2.93c-7.37.8-11.67-2.77-12.53-10.73l-1.11-10.28-4.28.46-.67-6.18,4.64-.5-.86-7.91,7.81-1.15.89,8.2L375,210l.67,6.18-9.87,1.07,1.08,9.93c.41,3.75,2,5.25,5.16,4.91a7.2,7.2,0,0,0,4.36-2Z"/><path class="cls-1" d="M383.77,205.17a5.09,5.09,0,1,1-1-10.12,5.09,5.09,0,1,1,1,10.12ZM380,209.5l8.13-1L391,236.79l-8.15.8Z"/><path class="cls-1" d="M420.57,215.43a11,11,0,0,1,0,2.1l-7.17,1a4.67,4.67,0,0,0,0-1.26,4.31,4.31,0,0,0-5-4.07c-3.69.32-5.93,3.57-5.54,8.1.41,4.77,3.13,7.71,8,7.29a9.83,9.83,0,0,0,7.4-3.94l4.43,4.78c-1.59,2.42-5.48,5.33-11.8,5.88-9.41.81-15.53-4.66-16.25-13-.75-8.64,4.7-15,13.34-15.79C415.37,205.92,420.1,209.95,420.57,215.43Z"/><path class="cls-1" d="M450.85,199c-3.58.23-5.68,2-5.51,4.72.46,7.16,20.66,1.79,21.61,16.59.39,6.14-4.25,11.29-14.27,11.93a24.6,24.6,0,0,1-16.22-4.47l4.56-6.4c2,1.55,6.33,4.33,11.46,4,4.24-.27,6.23-1.9,6.07-4.34-.5-7.88-20.76-2.39-21.65-16.29-.42-6.62,4.85-12.17,13.32-12.71,10.5-.67,14.11,5.21,15.28,9.39L458,203.79C457.74,201.71,455.45,198.75,450.85,199Z"/><path class="cls-1" d="M500.26,215.24c.4,8.48-5.24,14.73-14.14,15.15S471,225.1,470.58,216.62s5.24-14.73,14.2-15.15S499.86,206.75,500.26,215.24Zm-8.3.39c-.21-4.54-2.87-7.65-6.87-7.46s-6.42,3.53-6.21,8.07,2.87,7.65,6.93,7.46S492.17,220.22,492,215.62Z"/><path class="cls-1" d="M530.12,209.74a11,11,0,0,1-.11,2.1l-7.22.64a4.69,4.69,0,0,0,.08-1.26,4.31,4.31,0,0,0-4.8-4.34c-3.71.11-6.12,3.24-6,7.78.15,4.78,2.7,7.87,7.54,7.72a9.83,9.83,0,0,0,7.61-3.53l4.16,5c-1.72,2.33-5.77,5-12.1,5.22-9.44.29-15.25-5.51-15.5-13.88-.27-8.67,5.53-14.77,14.19-15C525.45,200,530,204.25,530.12,209.74Z"/><path class="cls-1" d="M539.25,196.07a5.09,5.09,0,1,1-.2-10.16,5.09,5.09,0,1,1,.2,10.16Zm-4,4,8.19-.4.57,28.46-8.19.16Z"/><path class="cls-1" d="M578.05,227.6a14.93,14.93,0,0,1-4,.57c-3.89,0-6-1.45-6.55-4.43-.88,1.74-3.19,4.51-9.05,4.56-6.1,0-9.59-3-9.63-7.69-.06-7,7.28-8.79,17.8-9.11H567v-1.26c0-2.87-1.71-4.77-5.18-4.74-3.11,0-4.83,1.3-4.82,3.33a2,2,0,0,0,.25,1.07l-7.16,1.25a10.58,10.58,0,0,1-.38-2.75c0-5.38,4.65-9,12.42-9.07,8.31-.07,12.83,4.08,12.89,11.19l.08,9.21c0,1.32.49,1.85,1.57,1.84a2.79,2.79,0,0,0,1-.19Zm-11-9.71,0-2.27h-.36c-6.75.23-9.92,1.22-9.89,3.85,0,1.85,1.52,2.8,4,2.78C564.68,222.21,567.05,220.16,567,217.89Z"/><path class="cls-1" d="M582.51,185.63l8.19,0-.14,42.21-8.19,0Z"/><path class="cls-1" d="M601.35,195.79a5.08,5.08,0,1,1,.11-10.16,5.09,5.09,0,1,1-.11,10.16Zm-4.17,3.9,8.19-.15L605.07,228l-8.19-.09Z"/><path class="cls-1" d="M627.43,209c0-2.27-1.59-3.74-4.46-3.8-2.69-.06-4.21,1.17-4.25,2.84-.12,5.68,16.47,1.55,16.3,12.43,0,5.08-4.78,8.33-12.49,8.16-8.55-.18-12.35-3.85-13.06-4.47l3.93-4.88c.59.55,4.71,3.51,9,3.6,2.87.06,4.26-.75,4.29-2.12.1-4.54-15.74-2.13-15.52-12.41.12-5.5,5-8.8,12.26-8.65,6.81.15,11.53,3.54,11.43,8.14a7.14,7.14,0,0,1-.28,1.91l-7.24.26A4.35,4.35,0,0,0,627.43,209Z"/><path class="cls-1" d="M686.08,213.24l-.71,17.26-8.18-.34.66-15.83c.14-3.41-1.38-5.68-4.67-5.82-4.06-.17-5.83,3.41-6,6.63l-.6,14.58-8.18-.34.66-15.83c.14-3.4-1.38-5.68-4.67-5.82-4-.17-5.77,3.41-5.9,6.64l-.6,14.58-8.18-.34,1.17-28.2,6.4,0a23.6,23.6,0,0,1,.77,6h.18a8.86,8.86,0,0,1,9.09-5.61c5,.21,8.14,2.91,9.41,6.79a9,9,0,0,1,9.34-6C683,201.86,686.35,206.78,686.08,213.24Z"/><path class="cls-1" d="M715.56,204.19l8.83.59L724,211l-8.83-.59-1.46,22-8.11-.54,1.46-22-4.18-.28.41-6.21,4.18.28.14-2.09c.51-7.7,5.88-11.89,12.81-11.43A15,15,0,0,1,727,192l-2.82,6.4a5.76,5.76,0,0,0-3.21-1.35c-3-.2-5,1.76-5.24,4.92Z"/><path class="cls-1" d="M754.4,221.3c-.68,8.46-7.06,13.95-15.94,13.24s-14.36-7.15-13.68-15.62,7.06-13.95,16-13.23S755.08,212.84,754.4,221.3Zm-8.28-.67c.36-4.53-1.88-7.95-5.87-8.27s-6.81,2.69-7.18,7.22,1.88,7.95,5.93,8.27S745.75,225.23,746.12,220.64Z"/><path class="cls-1" d="M780,210l-2.89,7.65a5.46,5.46,0,0,0-3.12-1.32c-3.1-.29-6,2-6.46,6.66l-1.28,13.57-8.16-.77,2.66-28.1,6.39.36a27.17,27.17,0,0,1,.43,6.29l.24,0c1.41-3.47,3.87-6,8.1-5.6A10.23,10.23,0,0,1,780,210Z"/><path class="cls-1" d="M812,239.77s-3.2,1.69-8.61,1.08c-7.37-.83-10.78-5.24-9.89-13.2l1.15-10.28-4.28-.48.69-6.18,4.63.52.89-7.9,7.88.58-.92,8.2,9.86,1.11-.69,6.18-9.86-1.11-1.11,9.92c-.42,3.74.82,5.57,4,5.92a7.19,7.19,0,0,0,4.68-1Z"/><path class="cls-1" d="M844.3,228.07l-2.2,17.2-8.18-1,2-15.78c.42-3.32-.89-5.78-4.21-6.2-4.15-.53-6.38,2.8-6.81,6.12l-1.85,14.47-8.13-1,5.34-41.87,7.95,1-2.29,18.45.18,0c1.79-2.67,4.6-4.42,9.11-3.84C842.23,216.47,845.11,221.72,844.3,228.07Z"/><path class="cls-1" d="M871.05,240.24l3.2,5c-2.25,2.21-6.69,4-12.72,3.17-9.41-1.36-14.17-8.09-13-16.5s7.69-13.51,16.33-12.26c8.17,1.18,12,7.42,10.93,15.05a16.83,16.83,0,0,1-.66,2.92l-18.82-2.72c.17,3.83,2.4,6.81,7,7.48A9.2,9.2,0,0,0,871.05,240.24ZM857,230.71l11.66,1.69c.42-3.32-1.23-6.1-4.61-6.59C860.82,225.34,858.1,227.06,857,230.71Z"/><path class="cls-1" d="M933.06,259.73l-8.25-1.43,3.61-20.49c.31-1.77.92-4.27,1-4.61l-.23-.1a30.13,30.13,0,0,1-1.87,3.44l-13.14,20.17-4.48-.78L904,232.24a26.38,26.38,0,0,1-.53-3.61h-.3a34.55,34.55,0,0,1-.51,4.71l-3.49,20.51-8.19-1.42,6.74-38.88,8.9,1.54,5.91,22.26c.69,2.67,1.44,6.38,1.53,7.3l.24,0a65.21,65.21,0,0,1,3.9-6.42l12.93-18.94,8.72,1.51Z"/><path class="cls-1" d="M967,266.23a14.91,14.91,0,0,1-4-.24c-3.81-.75-5.58-2.62-5.53-5.66-1.21,1.53-4,3.78-9.78,2.65-6-1.17-8.8-4.83-7.89-9.47,1.35-6.86,8.9-7.15,19.27-5.36l.35.07.24-1.23c.55-2.82-.72-5-4.12-5.68-3.05-.6-5,.3-5.39,2.29a2.06,2.06,0,0,0,0,1.1l-7.27-.21a10.57,10.57,0,0,1,.18-2.77c1-5.28,6.36-7.89,14-6.39,8.16,1.6,11.75,6.57,10.38,13.55l-1.77,9c-.25,1.29.11,1.91,1.17,2.12a2.79,2.79,0,0,0,1,0Zm-8.85-11.73.44-2.23-.35-.07c-6.66-1.13-10-.8-10.46,1.78-.36,1.82.93,3,3.33,3.52C955,258.27,957.7,256.73,958.13,254.5Z"/><path class="cls-1" d="M1001.45,256.06l-3.64,17-8-1.72,3.34-15.55c.7-3.27-.46-5.85-3.67-6.54-4.09-.88-6.61,2.31-7.3,5.53L979.1,269l-8-1.72L977,239.68l6.3,1.11a25,25,0,0,1-.25,6l.23,0a9.19,9.19,0,0,1,10.21-4C1000.36,244.32,1002.79,249.8,1001.45,256.06Z"/><path class="cls-1" d="M1004,287.31a11.63,11.63,0,0,1-4.87-2.3l2.59-5.84a8,8,0,0,0,3.13,1.59c2.5.58,4.13-.33,5.53-2.15l.84-1.22L1006.57,246l8.56,2,1.85,17.62a20.94,20.94,0,0,1,0,3.81l.12,0a30.51,30.51,0,0,1,1.71-3.41l9.27-15,8,1.87-19,28.43C1014.27,285.71,1010,288.71,1004,287.31Z"/><path id="Selection" class="cls-2" d="M588.34,20.67c-9.25,1.55-18.06,5.86-27.53,5.9a43.74,43.74,0,0,1-10.53-1.34c-1.43-.43-3.18-1.36-3-3.12.14-1.47,2-3.44,3-4.42,2.26-2.15,8.51-6.3,11.33-8.06l12.15-6.86c1.15-.59,3.74-2.22,4.86-2.28,2-.11,7.26,4.42,9.31,5.64l19.43,8.79c3.33,1.59,5.81,2,8.1,5.16C606.21,20.09,597.57,19.13,588.34,20.67Zm21.05,5.09,17.41-2.3a14.76,14.76,0,0,1,3.24.28c13,1.93,15.78,19.39,17.89,30,1.21,6.06,1.1,8.43,4.07,14.17,3.09,6,6.46,7.19,6.37,14.58l-.74,7.29c-1.11,11.07-1.31,10.21-4.79,20.65-3,8.93-4.4,14.76-14.3,18.22.17-3.6,1.86-7.3,2.66-10.93l2.71-16.19,1.49-10.93c.25-6.32-3.67-11.7-6.55-17C632.21,61.31,627,50.87,618,39.93a115.49,115.49,0,0,0-7.85-8.5c-1.75-1.75-3.74-3.24-4.45-5.67ZM527.59,98c-7.56-6.89-10.87-20.16-5.51-29.32,2.84-4.85,9.26-8.45,12.49-13,4.51-6.29,5.21-19.5,11.66-24.54,3.66-2.86,7.64-1.39,11.74-1.37l5.26-.42h4c4.24-.46,11.87-1.26,15.79-2.43,3.28-1,6.73-3.39,10.12-3.09,6,.52,12.08,7.64,15.63,12a26.35,26.35,0,0,1,3.8,5.26c-2.15.32-4-.26-6.07-.64l-12.15-1.79c-8.49-.1-16.24,3.38-23.48,7.52-14.74,8.44-27.19,21.1-34.29,36.61a61.4,61.4,0,0,0-4.07,13.36l-.91,5.26C529.58,100.47,529.23,99.5,527.59,98ZM664,38.48c1.21.75,3.88,2.39,4.61,3.51,1.15,1.76-.48,3.57-1.09,5.23a12.66,12.66,0,0,0-.33,7.29c2,8.28,11.43,21.72,12.11,30.77.5,6.62-6.29,11.15-11.67,13.28-1.22.48-5.12,2.08-6.23,1.27-.87-.62-.79-4.55-.75-5.64l1-9.72.68-4.45c.31-7.81-4.28-12.33-7.73-18.62-2.24-4.09-2.58-7.8-3.64-12.15l-4-15.79C651.68,32.18,660.11,36,664,38.48ZM506.3,85.68c-2.27-4.61-2.38-10-2.6-15l-.35-3.24-.48-8.5c-.24-3.33-1.29-5.78-2-8.91-.3-1.28-.65-2.58.56-3.48l6.77-2.83c3-1.12,7.41-3.19,10.53-2.93,2.52.21,4.34,1.22,6.48,2.41,2.32,1.29,6.88,3.12,6.14,6.42-.52,2.34-2.55,4.71-4.06,6.48-3,3.5-6.75,6.59-9.17,10.53-5.39,8.75-3.11,16.13-1.4,25.51C512.15,93.23,508.15,89.43,506.3,85.68Zm55,4c-5.6-6.24-3.74-17.82-1.35-25.07.79-2.38,1.55-5.42,3.29-7.25,4.37-4.59,10.89-5.55,16.55-7.6l10.53-5.18c6.3-1.91,12.3-.91,18.62,0l7.69,1.17c3.17.87,6.3,6.79,8,9.55,1.51,2.45,6.33,10.27,7.14,12.55,1.86,5.19.79,12.42-1.34,17.41-1.26,2.94-3.3,7.14-6.53,8.1l1.21-14.58C625.17,71,620,66.87,613,64.64c-10-3.17-21.9-3.06-30.36,3.82-5.25,4.26-7.89,9.87-9.06,16.41-.51,2.86-.36,6.95-1.46,9.31C568,93.43,564.44,93.14,561.34,89.69Zm19.84,10.83c-1.78-1.78-2.33-4.37-2.81-6.75-1-4.79-1.88-10.84.4-15.38,3-5.89,14.89-10.92,21.3-10.93a26.11,26.11,0,0,1,8.1.89,24.09,24.09,0,0,1,6.07,2c11.13,5.57,5.46,18.82,5.67,30.26a4.38,4.38,0,0,0,.64,2.77c.55.86,1.47,1.35,1.4,2.51s-1.64,3.13-2.37,4c-2.17,2.7-7.33,7-10.2,9.12-3.76,2.82-10.54,8.17-15.38,7.75-6.44-.55-15.7-8.38-21.05-12.13-2.63-1.84-7.26-4.49-9.18-6.77-2.53-3-3.37-9.49-3.37-13.36,2.69.77,5.94,3,8.5,4.36l6.88,3.74c8.69,4.94,25.21,10.18,31.93-.4a13.1,13.1,0,0,0,1.57-4,28.25,28.25,0,0,0,.91-8.91c0-3.85-.68-7.47-4-9.86-5.07-3.59-15.56,0-18.62,5-2.23,3.89-2,9.75,0,13.77l3.23,5.67C588,103.77,583.2,102.54,581.18,100.53ZM639.74,93l-.4,4.45v3.64a194,194,0,0,1-3.89,23.48,14.19,14.19,0,0,1-2.38,5.66c-1.75,2.23-4.28,3.46-6.67,4.87l-8.5,5.39c-4.13,2.76-9.36,6.53-14.17,7.77a61.87,61.87,0,0,1-8.1,1l-8.5-.73c-13.83-1.65-22.09-5.85-33.2-14.18-3.83-2.87-10.62-8.71-13.14-12.6-3.81-5.88-3.94-12.28-3.87-19,.1-8.58,3.56-16.08,8.23-23.08,1.83-2.74,5.59-8.78,8.38-10.12V81.23L554.73,97l.74,7.69c.15,1.48,0,3.06.65,4.45,1.09,2.25,3.39,2.45,5.49,3.19a33,33,0,0,1,8.5,4.57l12.15,9.83c4.15,3.53,6.73,6.44,12.55,6.3s15.06-6.3,19.43-9.9C622.89,116,627.52,107.6,630.56,97c1.23-4.27,2.92-13.58,7.57-15A49.71,49.71,0,0,1,639.74,93ZM600.89,83c2,.21,2.63,1.8,3.25,3.53a17.94,17.94,0,0,1,0,10.12c-.47,2.13-1.16,4.43-3.65,4.8-3.69.56-8.11-1.74-9.52-5.2-.76-1.87-.62-4.08-.6-6.07a6.14,6.14,0,0,1,.81-3.61c1.61-2.49,5-3.06,7.69-3.56A8.26,8.26,0,0,1,600.89,83Zm-75.34,17.77c5.79,5.47,6,15.61,12.37,23.41,8.5,10.36,24.85,22,37.87,25.74,8.61,2.46,12.4,1.68,19.84,3-.89,3.11-4.46,6.26-6.88,8.33a44.29,44.29,0,0,1-8.1,5.69c-8.66,4.33-14.7.32-22.27-3.77a59.7,59.7,0,0,0-10.12-4.44c-6.7-2.15-16.72-2.77-21.83-7.87-3.41-3.42-4.35-7.94-5-12.51-1-7.13-1-14.73-3.72-21.46a23.82,23.82,0,0,0-6.31-9.07c-2.36-2.08-5.52-3.5-6.87-6.31C510.58,97.53,519.63,95.15,525.55,100.73Zm73.76,54.85c1.15-.89,3-1.38,4.41-2a46.1,46.1,0,0,0,5.67-3.26c7.87-5.25,13.58-10.15,22.27-14.71,7.18-3.77,11.7-3.49,17.8-9.85,4.19-4.37,7.2-10.66,9.56-16.19.65-1.53,1.52-5.4,3.83-4.42,2.53,1.08,5,5.52,5.79,8.06,2.7,8.29-.67,19.74-6.65,25.9-4.3,4.43-10.69,7.36-16.56,9-3.72,1.06-8.67,1.68-11.74,4.09-2.76,2.16-6.23,7-8.45,10-1.9,2.49-3.76,4.9-6.93,5.81a11.41,11.41,0,0,1-3.24.26c-3.94-.1-8.54-2.81-12.15-2.8-3.28,0-4.52,2-8.1,2.8C594.83,164.52,596.23,158,599.31,155.58Z"/><path class="cls-3" d="M631.29,91.77c-1.51,12.2-6.33,22.62-13.61,30.48l7.15,10.23-13.28,9.25-6.73-9.62a53.83,53.83,0,0,1-25.29,6c-20.09,0-32.55-10.44-32.55-25.8,0-16.37,10.3-24.9,23.06-29.74-3.09-4.92-6-11.22-6-18.88,0-17,13.43-29.24,30.69-29.24,14.91,0,23.88,9.11,23.88,21.66,0,14.8-10.52,24.38-25.69,30.74l15.9,22.75c3.88-5.47,6.51-12.74,7.62-21.88l14.83,4.06Zm-49.19,30.64a36.33,36.33,0,0,0,14.11-2.62l-18.88-27c-7.92,3.71-11.24,9.25-11.24,16.06,0,8,6.1,13.55,16,13.55Zm11-73.66c-7.06,0-12.33,5.66-12.33,14,0,6,2.65,10.57,5.22,14.28,13.71-5.4,16.14-10.74,16.14-18.3,0-6-3.59-9.94-9-9.94Z"/></g></g></svg>