<svg width="223" height="228" xmlns="http://www.w3.org/2000/svg">
  <g fill="none" fill-rule="evenodd">
    <path d="M81.029 85.825c1.608.362 2.189-.473 2.14-1.55a4.67 4.67 0 0 0-.511-1.92c-1.166-2.203-3.059-3.649-5.261-4.706a5.522 5.522 0 0 0-1.746-.48c-.608-.067-.973.417-.902 1.094.07.677 3.052 6.837 6.28 7.562zm39.659-22.595c-1.628-34.222-18.641-46.516-28.22-44.028-9.579 2.487-18.789 16.292-20.274 41.528-.119 2.036.375 2.82 2.136 3.144 17.363 3.2 24.573 23.488 17.567 30.088-10.666 10.05-26.367-3.485-30.867-16.852-.479-1.423-1.284-1.415-2.358-1.375-16.992.648-49.664 13.335-42.09 31.818 6.541 15.964 36.742 21.457 55.24 17.526 12.466-2.649 23.205-10.019 27.049-13.064 3.661-2.899 5.281-4.875 9.856-9.838 6.956-7.546 12.64-24.657 11.961-38.947zM99.262.32c4.647.874 8.681 3.038 12.374 5.9 2.848 2.207 5.253 4.852 7.55 7.616 3.323 4 6.178 8.303 8.567 12.914 3.613 6.97 6.255 14.285 7.581 22.038.473 2.764.867 5.85 1.126 8.342.259 2.492.105 9.634-.076 12.297-.139 2.036-.522 4.055-.808 6.08-.476 3.376-1.292 6.68-2.313 9.922-3.018 9.591-7.581 18.374-13.85 26.26a75.515 75.515 0 0 1-11.38 11.543c-4.646 3.791-9.681 6.998-15.107 9.564-7.08 3.348-45.59 18.081-80.164-5.554-28.803-19.69-6.711-64.485 44.784-64.664 1.118-.238 1.632-.892 1.697-2.013.122-2.134.193-4.273.374-6.402.201-2.369.404-4.746.777-7.092 1.207-7.587 3.163-14.975 6.263-22.02 2.691-6.119 6.281-11.674 10.706-16.694 2.694-3.056 5.839-5.472 9.612-7.027C88.851.556 94.616-.554 99.262.32z" fill="#DB3D38"/>
    <path d="M203.737 111.875c.99-1.717.707-2.854-1.534-4.045-2.24-1.19-22.897-7.68-61.437 18.148-.952.638-1.368 1.073-1.927 1.72-.677.781-.54 1.322.509 1.984 10.309 6.516 57.12-5.21 64.389-17.807zm-40.209 112.798c-.977-2.004-2.873-8.23-4.134-12.406-3.525-11.672-7.94-22.998-13.375-33.914-3.455-6.937-7.471-13.557-11.69-20.05-2.668-4.323-5.43-8.604-9.27-13.998-.924-1.39-2.059-1.528-3.313-.424-2.926 2.578-5.266 5.665-7.556 8.785a209.408 209.408 0 0 0-17.778 28.836c-4.539 8.903-8.216 16.835-11.217 27.683-.351 1.196-.78 2.356-1.941 3.044-2.613 1.547-6.118-.178-6.547-3.312-.151-1.097.039-2.246.116-3.368.048-.716.162-1.428.268-2.138.319-2.128.591-4.266.988-6.38.501-2.677 1.036-5.352 1.682-7.997 1.635-6.696 3.896-13.188 6.507-19.563 5.004-12.22 11.57-23.524 19.971-33.72a140.494 140.494 0 0 1 8.427-9.348 125.285 125.285 0 0 1 8.916-8.2c6.589-5.492 13.814-10.034 21.509-13.82 6.533-3.217 44.357-20.45 71.126-7.302 4.747 2.332 6.571 7.431 6.561 11.03-.078 25.742-42.641 37.48-72.219 38.59-1.475.054-1.796.868-1.279 2.021.53 1.181 1.186 2.305 1.79 3.453 3.286 6.241 6.084 12.703 8.712 19.242 3.041 7.567 5.823 15.223 7.988 23.094 1.543 5.612 2.784 11.286 3.538 17.058.386 2.955.491 6.17.256 8.906-.235 2.737-.567 6.471-3.681 7.03-1.826.328-3.378-.828-4.355-2.832z" fill="#328E54"/>
  </g>
</svg>
