<svg viewBox="0 0 485 183" xmlns="http://www.w3.org/2000/svg" xmlns:xlink="http://www.w3.org/1999/xlink">
  <defs>
    <path id="a" d="M0 .303h484.662V183H0z"/>
  </defs>
  <g fill="none" fill-rule="evenodd">
    <path d="M221.714 90.563c2.64 0 4.381-.825 5.225-2.475.842-1.65 1.265-3.575 1.265-5.775 0-2.272-.423-4.252-1.265-5.94-.844-1.686-2.585-2.53-5.225-2.53h-11.11v16.72h11.11zm-3.19-27.5c2.786 0 4.601-.842 5.445-2.53.842-1.686 1.265-3.812 1.265-6.38 0-2.346-.423-4.4-1.265-6.16-.844-1.76-2.659-2.64-5.445-2.64h-7.92v17.71h7.92zm-1.1-28.6c4.326 0 7.717.734 10.175 2.2 2.456 1.468 4.326 3.154 5.61 5.06 1.283 1.908 2.09 3.833 2.42 5.775.33 1.944.495 3.355.495 4.235 0 1.248-.055 2.548-.165 3.905a19.973 19.973 0 0 1-.77 4.07 15.22 15.22 0 0 1-1.76 3.85c-.77 1.21-1.815 2.329-3.135 3.355 2.2 1.1 3.886 2.513 5.06 4.235 1.172 1.724 2.052 3.429 2.64 5.115.66 1.908 1.026 3.924 1.1 6.05 0 4.768-.77 8.434-2.31 11-1.54 2.568-3.338 4.455-5.39 5.665-2.054 1.21-4.089 1.908-6.105 2.09-2.018.184-3.465.275-4.345.275h-19.91c-.294 0-.588-.127-.88-.385-.294-.256-.44-.567-.44-.935v-64.24c0-.366.146-.677.44-.935.292-.256.586-.385.88-.385h16.39zM269.696 60.863c-3.374 0-6.16.954-8.361 2.86-2.2 1.908-3.299 4.988-3.299 9.24v27.06c0 .368-.148.679-.441.935a1.456 1.456 0 0 1-.989.385h-8.141c-.294 0-.588-.127-.88-.385a1.192 1.192 0 0 1-.439-.935v-51.81c0-.366.145-.678.439-.935.292-.256.586-.385.88-.385h6.491c.366 0 .677.129.935.385.256.257.421.569.494.935l1.101 7.81c1.832-3.372 3.976-5.701 6.434-6.985 2.456-1.282 4.747-1.997 6.875-2.145.367 0 .678.148.936.44.256.294.385.588.385.88v11.22c0 .368-.129.698-.385.99-.258.294-.569.44-.936.44h-1.099M289.517 68.563h13.75v-4.73c0-1.906-.643-3.482-1.925-4.73-1.284-1.246-2.989-1.87-5.115-1.87-1.979 0-3.594.624-4.84 1.87-1.248 1.248-1.87 2.824-1.87 4.73v4.73zm13.53 17.16c0-.366.147-.677.441-.935.292-.256.586-.385.88-.385h8.139c.367 0 .697.129.991.385.292.258.439.569.439.935-.66 5.134-2.438 9.113-5.335 11.935-2.897 2.824-7.022 4.235-12.375 4.235-5.939 0-10.358-1.796-13.255-5.39-2.897-3.593-4.345-8.652-4.345-15.179V66.693c0-6.672 1.448-11.77 4.345-15.29 2.897-3.52 7.316-5.28 13.255-5.28 6.086 0 10.597 1.76 13.53 5.28 2.933 3.52 4.401 8.618 4.401 15.29v9.57c0 .368-.149.679-.441.936a1.464 1.464 0 0 1-.99.384h-23.21v6.6c0 1.98.622 3.575 1.87 4.785 1.246 1.21 2.861 1.815 4.84 1.815 1.687 0 3.152-.421 4.4-1.265 1.247-.842 2.052-2.108 2.42-3.795zM339.17 91.333c1.613 0 3.153-.55 4.62-1.65 1.466-1.1 2.201-2.822 2.201-5.17v-6.16h-5.061c-1.174 0-2.329.074-3.465.22-1.137.148-2.109.459-2.915.935a5.684 5.684 0 0 0-1.979 1.98c-.515.844-.771 1.925-.771 3.245v.44c0 2.128.787 3.685 2.365 4.675 1.577.99 3.246 1.485 5.005 1.485zm-17.49-28.71c.22-5.72 1.76-9.9 4.62-12.54 2.861-2.64 7.002-3.96 12.43-3.96 5.94 0 10.45 1.76 13.53 5.28 3.08 3.52 4.62 8.618 4.62 15.29v33.33c0 .368-.147.679-.44.935-.294.258-.588.385-.88.385h-6.93c-.368 0-.66-.127-.88-.385a3.269 3.269 0 0 1-.549-.935l-.771-2.64c-.807 1.1-1.723 1.963-2.75 2.585-1.027.624-2.054 1.083-3.08 1.375a12.72 12.72 0 0 1-2.97.495c-.954.036-1.759.055-2.42.055-1.98 0-3.833-.33-5.554-.99a12.053 12.053 0 0 1-4.511-3.025c-1.283-1.356-2.31-3.08-3.08-5.17s-1.154-4.601-1.154-7.535c0-5.206 1.337-9.35 4.014-12.43 2.676-3.08 6.545-4.62 11.606-4.62.952 0 2.291.093 4.014.275 1.722.184 3.537.569 5.446 1.155v-5.72c0-1.906-.644-3.482-1.926-4.73-1.283-1.246-2.988-1.87-5.114-1.87-1.909 0-3.411.55-4.511 1.65-1.1 1.1-1.724 2.348-1.869 3.74 0 .367-.149.679-.441.935-.294.258-.588.385-.88.385h-8.14c-.367 0-.697-.127-.989-.385-.294-.256-.441-.568-.441-.935zM376.285 84.623c0 2.054.622 3.594 1.87 4.62 1.246 1.028 2.821 1.54 4.729 1.54 1.687 0 3.245-.531 4.675-1.595 1.431-1.062 2.146-2.731 2.146-5.005v-20.35c0-2.272-.715-3.941-2.146-5.005-1.43-1.062-2.988-1.595-4.675-1.595-1.908 0-3.483.514-4.729 1.54-1.248 1.028-1.87 2.568-1.87 4.62v21.23zm14.409 11.22c-.659 1.54-1.559 2.714-2.695 3.52-1.137.808-2.274 1.394-3.41 1.76-1.137.367-2.182.586-3.134.661-.955.071-1.54.109-1.761.109-4.987 0-8.617-1.631-10.89-4.895-2.273-3.262-3.41-7.461-3.41-12.595v-20.79c0-5.132 1.137-9.332 3.41-12.595 2.273-3.262 5.903-4.895 10.89-4.895.221 0 .752.019 1.596.055.841.038 1.777.22 2.804.55 1.027.33 2.053.844 3.08 1.54 1.027.698 1.87 1.705 2.531 3.025v-16.61c0-.366.145-.677.439-.935.292-.256.622-.385.99-.385h8.14c.293 0 .587.129.881.385.292.258.439.569.439.935v65.34c0 .368-.147.679-.439.935-.294.258-.588.385-.881.385h-6.489c-.369 0-.68-.127-.936-.385a1.761 1.761 0 0 1-.495-.935l-.66-4.18zM210.385 129.293c0 1.907.421 3.558 1.266 4.95.842 1.394 1.997 2.934 3.465 4.62 2.126-1.832 3.831-3.355 5.115-4.565 1.282-1.21 1.925-2.915 1.925-5.115 0-2.126-.55-3.776-1.651-4.95-1.099-1.172-2.53-1.76-4.29-1.76-.219 0-.642.038-1.264.11-.624.074-1.266.33-1.925.77-.66.44-1.266 1.119-1.816 2.035-.549.918-.825 2.219-.825 3.905zm3.96 41.36c1.981 0 3.74-.495 5.28-1.485a13.669 13.669 0 0 0 3.85-3.685l-9.899-11.659-1.21.989c-1.76 1.54-3.284 3.08-4.566 4.62-1.283 1.54-1.925 3.227-1.925 5.06 0 2.054.606 3.594 1.816 4.62 1.21 1.028 3.427 1.54 6.654 1.54zm33.66 7.37c0 .368-.147.679-.439.935a1.46 1.46 0 0 1-.99.385h-10.34c-.368 0-.735-.165-1.101-.495a23.6 23.6 0 0 1-.88-.825l-3.74-4.07c-2.127 3.008-4.713 5.06-7.755 6.16-3.044 1.1-6.032 1.65-8.965 1.65-1.54 0-3.392-.184-5.554-.55-2.164-.368-4.236-1.155-6.215-2.365-1.981-1.21-3.65-2.932-5.005-5.17-1.358-2.236-2.035-5.225-2.035-8.965 0-2.639.604-5.115 1.814-7.425 1.21-2.31 2.585-4.345 4.125-6.105a35.374 35.374 0 0 1 5.83-5.609c-3.08-3.374-5.059-6.381-5.939-9.021-.881-2.64-1.32-4.95-1.32-6.93 0-3.446.531-6.325 1.594-8.635 1.063-2.31 2.402-4.18 4.016-5.61 1.611-1.429 3.409-2.456 5.39-3.08 1.979-.622 3.849-.935 5.61-.935 2.271 0 4.435.33 6.489.99 2.053.66 3.851 1.705 5.391 3.135 1.54 1.43 2.766 3.3 3.684 5.61.916 2.311 1.375 5.153 1.375 8.525 0 2.128-.588 4.218-1.759 6.27-1.174 2.054-2.458 3.888-3.851 5.5-1.613 1.908-3.483 3.704-5.609 5.39l8.03 9.35 4.29-7.59c.145-.292.365-.586.659-.88.293-.293.622-.44.99-.44h8.58c.367 0 .697.129.991.385.292.258.439.569.439.935l-8.689 16.281 10.889 13.199zM294.972 149.093c3.006 0 5.335-.971 6.985-2.915 1.65-1.942 2.475-4.601 2.475-7.975v-3.96c0-3.152-.825-5.737-2.475-7.755-1.65-2.016-3.979-3.025-6.985-3.025h-6.82v25.63h6.82zm21.231 28.93c0 .368-.149.679-.441.935-.294.258-.588.385-.88.385h-7.92c-.368 0-.678-.127-.935-.385a2.697 2.697 0 0 1-.605-.935l-6.6-18.26a19.67 19.67 0 0 1-3.63.33h-7.04v17.93c0 .368-.148.679-.44.935a1.46 1.46 0 0 1-.99.385h-8.03c-.294 0-.588-.127-.88-.385a1.192 1.192 0 0 1-.439-.935v-64.239c0-.367.145-.678.439-.936.292-.256.586-.385.88-.385h16.5c3.593 0 6.655.605 9.185 1.815 2.531 1.21 4.621 2.824 6.27 4.84 1.65 2.018 2.86 4.383 3.63 7.095.77 2.714 1.155 5.611 1.155 8.69v2.97c0 3.74-.588 7.188-1.76 10.34-1.173 3.154-3.007 5.72-5.5 7.7l8.031 22.11zM340.369 168.783c1.979 0 3.574-.605 4.784-1.815 1.211-1.21 1.815-2.805 1.815-4.785v-20.35c0-1.906-.604-3.482-1.815-4.73-1.21-1.246-2.805-1.87-4.784-1.87-1.981 0-3.576.624-4.786 1.87-1.209 1.248-1.815 2.824-1.815 4.73v20.35c0 1.98.606 3.575 1.815 4.785 1.21 1.21 2.805 1.815 4.786 1.815zm0-44.66c5.939 0 10.339 1.76 13.199 5.28 2.86 3.52 4.29 8.618 4.29 15.29v14.631c0 6.527-1.43 11.586-4.29 15.179-2.86 3.594-7.26 5.39-13.199 5.39-5.941 0-10.341-1.796-13.201-5.39-2.86-3.593-4.29-8.652-4.29-15.179v-14.631c0-6.672 1.43-11.77 4.29-15.29 2.86-3.52 7.26-5.28 13.201-5.28zM364.985 163.833c0-.366.145-.66.439-.88.292-.22.586-.33.88-.33h8.141c.366 0 .696.129.989.385.293.258.44.569.44.935.147 1.467.751 2.75 1.816 3.85 1.061 1.1 2.657 1.65 4.784 1.65 1.981 0 3.631-.44 4.95-1.32 1.321-.88 1.981-2.272 1.981-4.18 0-1.686-.588-2.987-1.76-3.905-1.175-.916-2.659-1.722-4.455-2.42a132.151 132.151 0 0 0-5.83-2.09 25.099 25.099 0 0 1-5.83-2.805c-1.798-1.172-3.283-2.731-4.455-4.675-1.174-1.942-1.76-4.491-1.76-7.645 0-5.866 1.576-10.046 4.729-12.54 3.153-2.493 7.223-3.74 12.21-3.74 4.84 0 8.782 1.339 11.826 4.015 3.042 2.678 4.71 6.913 5.004 12.705 0 .368-.147.679-.439.935-.294.257-.588.385-.881.385h-8.14c-.368 0-.698-.128-.99-.385a1.192 1.192 0 0 1-.439-.935c-.074-1.466-.495-2.877-1.266-4.235-.769-1.356-2.364-2.034-4.784-2.034-2.349 0-3.925.513-4.73 1.539-.808 1.028-1.21 2.164-1.21 3.41 0 1.98.585 3.465 1.759 4.455 1.173.99 2.658 1.815 4.455 2.475a98.12 98.12 0 0 0 5.83 1.925 24.602 24.602 0 0 1 5.831 2.585c1.795 1.1 3.281 2.623 4.455 4.565 1.172 1.944 1.759 4.603 1.759 7.975 0 2.2-.312 4.309-.934 6.325-.624 2.018-1.633 3.759-3.026 5.225-1.393 1.468-3.227 2.64-5.5 3.521-2.273.879-5.023 1.319-8.25 1.319-5.939 0-10.322-1.54-13.144-4.62-2.824-3.08-4.31-6.892-4.455-11.44M417.959 146.563h13.75v-4.73c0-1.906-.642-3.482-1.924-4.73-1.285-1.246-2.99-1.87-5.116-1.87-1.979 0-3.593.624-4.839 1.87-1.248 1.248-1.871 2.824-1.871 4.73v4.73zm13.531 17.16c0-.366.146-.677.44-.935.292-.256.586-.385.88-.385h8.14c.366 0 .696.129.99.385.292.258.439.569.439.935-.66 5.134-2.438 9.113-5.335 11.935-2.897 2.824-7.022 4.235-12.375 4.235-5.939 0-10.358-1.796-13.254-5.39-2.898-3.593-4.345-8.652-4.345-15.179v-14.631c0-6.672 1.447-11.77 4.345-15.29 2.896-3.52 7.315-5.28 13.254-5.28 6.086 0 10.597 1.76 13.531 5.28 2.932 3.52 4.4 8.618 4.4 15.29v9.57c0 .368-.148.679-.44.936a1.465 1.465 0 0 1-.991.384h-23.21v6.6c0 1.98.623 3.575 1.871 4.785 1.246 1.21 2.86 1.815 4.839 1.815 1.687 0 3.153-.421 4.401-1.265 1.246-.842 2.052-2.108 2.42-3.795z" fill="#0A0B09"/>
    <mask id="b" fill="#fff">
      <use xlink:href="#a"/>
    </mask>
    <path d="M449.352 163.833c0-.366.146-.66.439-.88.292-.22.586-.33.88-.33h8.141c.366 0 .696.129.989.385.293.258.441.569.441.935.146 1.467.751 2.75 1.815 3.85 1.062 1.1 2.657 1.65 4.784 1.65 1.981 0 3.631-.44 4.95-1.32 1.321-.88 1.981-2.272 1.981-4.18 0-1.686-.588-2.987-1.76-3.905-1.175-.916-2.659-1.722-4.455-2.42a132.151 132.151 0 0 0-5.83-2.09 25.099 25.099 0 0 1-5.83-2.805c-1.798-1.172-3.283-2.731-4.455-4.675-1.174-1.942-1.76-4.491-1.76-7.645 0-5.866 1.576-10.046 4.73-12.54 3.152-2.493 7.222-3.74 12.21-3.74 4.839 0 8.781 1.339 11.825 4.015 3.042 2.678 4.711 6.913 5.005 12.705 0 .368-.148.679-.44.935-.294.257-.588.385-.881.385h-8.139a1.46 1.46 0 0 1-.991-.385 1.192 1.192 0 0 1-.439-.935c-.074-1.466-.495-2.877-1.266-4.235-.769-1.356-2.364-2.034-4.784-2.034-2.348 0-3.925.513-4.73 1.539-.808 1.028-1.21 2.164-1.21 3.41 0 1.98.586 3.465 1.76 4.455 1.172.99 2.657 1.815 4.455 2.475a97.64 97.64 0 0 0 5.83 1.925 24.595 24.595 0 0 1 5.83 2.585c1.796 1.1 3.281 2.623 4.455 4.565 1.172 1.944 1.76 4.603 1.76 7.975 0 2.2-.313 4.309-.935 6.325-.624 2.018-1.633 3.759-3.025 5.225-1.394 1.468-3.228 2.64-5.5 3.521-2.274.879-5.024 1.319-8.25 1.319-5.94 0-10.323-1.54-13.145-4.62-2.824-3.08-4.309-6.892-4.455-11.44" fill="#0A0B09" mask="url(#b)"/>
    <path d="M65.054 69.208c1.291.29 1.758-.38 1.718-1.244a3.745 3.745 0 0 0-.41-1.542c-.936-1.769-2.456-2.929-4.223-3.778a4.423 4.423 0 0 0-1.403-.386c-.488-.054-.78.335-.724.878.057.544 2.451 5.489 5.042 6.072zm31.84-18.141c-1.306-27.475-14.966-37.345-22.656-35.348-7.69 1.997-15.085 13.081-16.277 33.341-.096 1.635.301 2.264 1.715 2.524 13.94 2.569 19.729 18.858 14.104 24.157-8.564 8.067-21.169-2.799-24.782-13.53-.385-1.143-1.031-1.137-1.893-1.104-13.643.52-39.873 10.706-33.792 25.545 5.252 12.817 29.498 17.226 44.349 14.07 10.009-2.126 18.631-8.043 21.717-10.487 2.939-2.328 4.239-3.915 7.913-7.899 5.584-6.058 10.148-19.796 9.602-31.269zM79.693.56c3.73.702 6.969 2.439 9.934 4.737 2.287 1.772 4.217 3.895 6.061 6.114a57.861 57.861 0 0 1 6.879 10.368c2.9 5.596 5.021 11.469 6.086 17.694.38 2.219.696 4.696.904 6.697.208 2 .084 7.735-.061 9.873-.111 1.634-.419 3.255-.648 4.881-.383 2.71-1.038 5.362-1.858 7.966-2.423 7.7-6.086 14.752-11.119 21.082a60.57 60.57 0 0 1-9.137 9.267 59.07 59.07 0 0 1-12.128 7.679c-5.684 2.688-36.602 14.516-64.36-4.459-23.124-15.807-5.388-51.772 35.955-51.915.898-.191 1.31-.716 1.362-1.616.098-1.714.155-3.431.3-5.14.162-1.902.325-3.81.625-5.694.968-6.091 2.539-12.023 5.027-17.68 2.161-4.911 5.043-9.372 8.596-13.402 2.163-2.453 4.687-4.392 7.717-5.642 1.506-.621 6.134-1.512 9.865-.81z" fill="#DB3D38" mask="url(#b)"/>
    <path d="M163.57 90.122c.795-1.378.568-2.291-1.231-3.247s-18.383-6.167-49.325 14.57c-.764.512-1.098.861-1.547 1.38-.544.627-.433 1.062.408 1.594 8.277 5.23 45.86-4.184 51.695-14.297zm-32.281 90.56c-.785-1.609-2.307-6.608-3.319-9.96-2.831-9.371-6.375-18.464-10.739-27.228-2.773-5.57-5.997-10.884-9.384-16.098a195.248 195.248 0 0 0-7.443-11.237c-.742-1.117-1.653-1.228-2.66-.341-2.349 2.07-4.228 4.548-6.067 7.053a168.092 168.092 0 0 0-14.272 23.151c-3.645 7.148-6.597 13.516-9.006 22.225-.282.961-.627 1.892-1.559 2.444-2.098 1.242-4.911-.143-5.256-2.659-.121-.881.032-1.803.093-2.704.039-.574.13-1.146.216-1.716.255-1.709.474-3.425.793-5.123.402-2.149.832-4.296 1.35-6.42 1.313-5.376 3.128-10.588 5.224-15.706 4.018-9.811 9.289-18.886 16.034-27.073a113.154 113.154 0 0 1 6.766-7.504 100.387 100.387 0 0 1 7.158-6.583c5.29-4.41 11.09-8.057 17.269-11.097 5.244-2.582 35.612-16.418 57.103-5.861 3.811 1.872 5.276 5.965 5.267 8.855-.062 20.667-34.234 30.09-57.981 30.981-1.184.045-1.442.698-1.026 1.624.425.948.952 1.85 1.437 2.772 2.638 5.011 4.885 10.198 6.994 15.448 2.442 6.076 4.675 12.222 6.413 18.542 1.239 4.505 2.236 9.06 2.841 13.694.31 2.373.394 4.954.205 7.151-.189 2.197-.455 5.195-2.955 5.643-1.466.264-2.712-.664-3.496-2.273z" fill="#318E54" mask="url(#b)"/>
  </g>
</svg>
